<svg width="76" height="44" viewBox="0 0 76 44" fill="none" xmlns="http://www.w3.org/2000/svg">
<path d="M18 40H20V38H18V40Z" fill="white"/>
<path d="M8 40H10V38H8V40Z" fill="white"/>
<path d="M30.68 18H32.08V12.29H34.54V11H28.2V12.29H30.68V18ZM35.388 18H36.788V15.14H40.618V18H42.018V11H40.618V13.85H36.788V11H35.388V18ZM43.2787 18H49.0587V16.7H44.6787V15.14H48.8987V13.85H44.6787V12.29H49.0587V11H43.2787V18ZM30.68 29H32.08V23.29H34.54V22H28.2V23.29H30.68V29ZM40.238 29H41.978L40.218 26.69C41.088 26.28 41.728 25.46 41.728 24.48C41.728 22.99 40.488 22 38.988 22H35.388V29H36.788V26.96H38.688L40.238 29ZM40.328 24.48C40.328 25.14 39.758 25.65 38.988 25.65H36.788V23.29H38.988C39.768 23.29 40.328 23.79 40.328 24.48ZM41.7951 29H43.3451L44.1751 27.35H48.0051L48.8351 29H50.3951L46.8651 22H45.3051L41.7951 29ZM44.8151 26.07L46.0851 23.55L47.3551 26.07H44.8151ZM49.5685 22L53.0785 29H54.6385L58.1685 22H56.6085L53.8585 27.45L51.1185 22H49.5685ZM58.64 29H64.42V27.7H60.04V26.14H64.26V24.85H60.04V23.29H64.42V22H58.64V29ZM65.7005 29H71.2605V27.66H67.1005V22H65.7005V29ZM30.68 40H32.08V34.29H34.54V33H28.2V34.29H30.68V40ZM36.778 33H35.378V40H36.778V33ZM39.4443 35.49L41.3743 40H42.7843L44.7143 35.51V40H46.1143V33H44.3343L42.0843 38.33L39.8243 33H38.0443V40H39.4443V35.49ZM47.3998 40H53.1798V38.7H48.7998V37.14H53.0198V35.85H48.7998V34.29H53.1798V33H47.3998V40Z" fill="white"/>
<path d="M18 13.5V4.5C18 3.39543 17.1046 2.5 16 2.5H12C10.8954 2.5 10 3.39543 10 4.5V13.5" stroke="white" stroke-width="1.5"/>
<path d="M11 2C11 1.44772 11.4477 1 12 1H16C16.5523 1 17 1.44772 17 2V3C17 3.55228 16.5523 4 16 4H12C11.4477 4 11 3.55228 11 3V2Z" fill="white"/>
<rect x="4.75" y="12.75" width="18.5" height="26.5" rx="9.25" stroke="white" stroke-width="1.5"/>
<path d="M14.4998 26.4998L14.4998 25.4998L17.4999 25.4998L17.9998 25.9998L17.4999 26.4998L14.4998 26.4998Z" fill="white"/>
<path d="M14.5 24.9999L13.5 24.9999L13.5001 19.4999L14.0001 18.9999L14.5001 19.5001L14.5 24.9999Z" fill="#FF4200"/>
<path d="M11.9998 26L13.0001 25.9999" stroke="white" stroke-width="0.5"/>
<path d="M13.9999 28.5L14 27" stroke="#FF4200" stroke-width="0.5"/>
<path d="M15 26C15 26.5523 14.5523 27 14 27C13.4477 27 13 26.5523 13 26C13 25.4477 13.4477 25 14 25C14.5523 25 15 25.4477 15 26Z" stroke="white"/>
</svg>
