<svg width="76" height="44" viewBox="0 0 76 44" fill="none" xmlns="http://www.w3.org/2000/svg">
<path d="M18 41H20V39H18V41Z" fill="#222222"/>
<path d="M8 41H10V39H8V41Z" fill="#222222"/>
<path d="M30.68 19H32.08V13.29H34.54V12H28.2V13.29H30.68V19ZM35.388 19H36.788V16.14H40.618V19H42.018V12H40.618V14.85H36.788V12H35.388V19ZM43.2787 19H49.0587V17.7H44.6787V16.14H48.8987V14.85H44.6787V13.29H49.0587V12H43.2787V19ZM30.68 30H32.08V24.29H34.54V23H28.2V24.29H30.68V30ZM40.238 30H41.978L40.218 27.69C41.088 27.28 41.728 26.46 41.728 25.48C41.728 23.99 40.488 23 38.988 23H35.388V30H36.788V27.96H38.688L40.238 30ZM40.328 25.48C40.328 26.14 39.758 26.65 38.988 26.65H36.788V24.29H38.988C39.768 24.29 40.328 24.79 40.328 25.48ZM41.7951 30H43.3451L44.1751 28.35H48.0051L48.8351 30H50.3951L46.8651 23H45.3051L41.7951 30ZM44.8151 27.07L46.0851 24.55L47.3551 27.07H44.8151ZM49.5685 23L53.0785 30H54.6385L58.1685 23H56.6085L53.8585 28.45L51.1185 23H49.5685ZM58.64 30H64.42V28.7H60.04V27.14H64.26V25.85H60.04V24.29H64.42V23H58.64V30ZM65.7005 30H71.2605V28.66H67.1005V23H65.7005V30ZM30.68 41H32.08V35.29H34.54V34H28.2V35.29H30.68V41ZM36.778 34H35.378V41H36.778V34ZM39.4443 36.49L41.3743 41H42.7843L44.7143 36.51V41H46.1143V34H44.3343L42.0843 39.33L39.8243 34H38.0443V41H39.4443V36.49ZM47.3998 41H53.1798V39.7H48.7998V38.14H53.0198V36.85H48.7998V35.29H53.1798V34H47.3998V41Z" fill="#222222"/>
<path d="M18 14.5V5.5C18 4.39543 17.1046 3.5 16 3.5H12C10.8954 3.5 10 4.39543 10 5.5V14.5" stroke="#222222" stroke-width="1.5"/>
<path d="M11 3C11 2.44772 11.4477 2 12 2H16C16.5523 2 17 2.44772 17 3V4C17 4.55228 16.5523 5 16 5H12C11.4477 5 11 4.55228 11 4V3Z" fill="#222222"/>
<rect x="4.75" y="13.75" width="18.5" height="26.5" rx="9.25" stroke="#222222" stroke-width="1.5"/>
<path d="M14.4998 27.4998L14.4998 26.4998L17.4999 26.4998L17.9998 26.9998L17.4999 27.4998L14.4998 27.4998Z" fill="#222222"/>
<path d="M14.5 25.9999L13.5 25.9999L13.5001 20.4999L14.0001 19.9999L14.5001 20.5001L14.5 25.9999Z" fill="#FF4200"/>
<path d="M11.9998 27L13.0001 26.9999" stroke="#222222" stroke-width="0.5"/>
<path d="M13.9999 29.5L14 28" stroke="#FF4200" stroke-width="0.5"/>
<path d="M15 27C15 27.5523 14.5523 28 14 28C13.4477 28 13 27.5523 13 27C13 26.4477 13.4477 26 14 26C14.5523 26 15 26.4477 15 27Z" stroke="#222222"/>
</svg>
